<svg width="940" height="656" viewBox="0 0 940 656" fill="none" xmlns="http://www.w3.org/2000/svg">
<rect width="940" height="656" fill="#1E1E1E"/>
<rect x="51.9551" y="26.5" width="184" height="31" rx="5.5" fill="#333333"/>
<rect x="51.9551" y="26.5" width="184" height="31" rx="5.5" stroke="#505050"/>
<text fill="#ABABAB" xml:space="preserve" style="white-space: pre" font-family="Ubuntu Mono" font-size="14" letter-spacing="0em"><tspan x="63.4551" y="46.62">Parse Convo-Lang script</tspan></text>
<rect x="95.5" y="229" width="93" height="47" rx="5.5" fill="#333333"/>
<rect x="95.5" y="229" width="93" height="47" rx="5.5" stroke="#505050"/>
<text fill="#ABABAB" xml:space="preserve" style="white-space: pre" font-family="Ubuntu Mono" font-size="14" letter-spacing="0em"><tspan x="107" y="249.12">Wait for&#10;</tspan><tspan x="107" y="265.12">user input</tspan></text>
<rect x="284.521" y="237" width="135" height="31" rx="5.5" fill="#333333"/>
<rect x="284.521" y="237" width="135" height="31" rx="5.5" stroke="#505050"/>
<text fill="#ABABAB" xml:space="preserve" style="white-space: pre" font-family="Ubuntu Mono" font-size="14" letter-spacing="0em"><tspan x="296.021" y="257.12">Flatten messages</tspan></text>
<rect x="515.541" y="229" width="135" height="47" rx="5.5" fill="#333333"/>
<rect x="515.541" y="229" width="135" height="47" rx="5.5" stroke="#505050"/>
<text fill="#ABABAB" xml:space="preserve" style="white-space: pre" font-family="Ubuntu Mono" font-size="14" letter-spacing="0em"><tspan x="527.041" y="249.12">Pass messages to&#10;</tspan><tspan x="527.041" y="265.12">LLM adapter</tspan></text>
<rect x="746.561" y="221" width="128" height="63" rx="5.5" fill="#333333"/>
<rect x="746.561" y="221" width="128" height="63" rx="5.5" stroke="#505050"/>
<text fill="#ABABAB" xml:space="preserve" style="white-space: pre" font-family="Ubuntu Mono" font-size="14" letter-spacing="0em"><tspan x="758.061" y="241.12">Convert flatten&#10;</tspan><tspan x="758.061" y="257.12">messages into&#10;</tspan><tspan x="758.061" y="273.12">LLM format</tspan></text>
<rect x="48.4551" y="114.5" width="191" height="47" rx="5.5" fill="#333333"/>
<rect x="48.4551" y="114.5" width="191" height="47" rx="5.5" stroke="#505050"/>
<text fill="#ABABAB" xml:space="preserve" style="white-space: pre" font-family="Ubuntu Mono" font-size="14" letter-spacing="0em"><tspan x="59.9551" y="134.62">Load parsed message into&#10;</tspan><tspan x="59.9551" y="150.62">Conversation context</tspan></text>
<rect x="766.099" y="367.25" width="114" height="47" rx="5.5" fill="#333333"/>
<rect x="766.099" y="367.25" width="114" height="47" rx="5.5" stroke="#505050"/>
<text fill="#ABABAB" xml:space="preserve" style="white-space: pre" font-family="Ubuntu Mono" font-size="14" letter-spacing="0em"><tspan x="777.599" y="387.37">Send messages&#10;</tspan><tspan x="777.599" y="403.37">to LLM</tspan></text>
<rect x="619.698" y="367.25" width="86" height="47" rx="5.5" fill="#333333"/>
<rect x="619.698" y="367.25" width="86" height="47" rx="5.5" stroke="#505050"/>
<text fill="#ABABAB" xml:space="preserve" style="white-space: pre" font-family="Ubuntu Mono" font-size="14" letter-spacing="0em"><tspan x="631.198" y="387.37">LLM sends&#10;</tspan><tspan x="631.198" y="403.37">response</tspan></text>
<rect x="417.297" y="359.25" width="142" height="63" rx="5.5" fill="#333333"/>
<rect x="417.297" y="359.25" width="142" height="63" rx="5.5" stroke="#505050"/>
<text fill="#ABABAB" xml:space="preserve" style="white-space: pre" font-family="Ubuntu Mono" font-size="14" letter-spacing="0em"><tspan x="428.797" y="379.37">LLM adapter&#10;</tspan><tspan x="428.797" y="395.37">converts response&#10;</tspan><tspan x="428.797" y="411.37">to Convo format</tspan></text>
<rect x="249.896" y="359.25" width="107" height="63" rx="5.5" fill="#333333"/>
<rect x="249.896" y="359.25" width="107" height="63" rx="5.5" stroke="#505050"/>
<text fill="#ABABAB" xml:space="preserve" style="white-space: pre" font-family="Ubuntu Mono" font-size="14" letter-spacing="0em"><tspan x="261.396" y="379.37">Messages are&#10;</tspan><tspan x="261.396" y="395.37">appended to&#10;</tspan><tspan x="261.396" y="411.37">conversation</tspan></text>
<rect x="78.1211" y="525" width="128" height="47" rx="5.5" fill="#333333"/>
<rect x="78.1211" y="525" width="128" height="47" rx="5.5" stroke="#505050"/>
<text fill="#ABABAB" xml:space="preserve" style="white-space: pre" font-family="Ubuntu Mono" font-size="14" letter-spacing="0em"><tspan x="89.6211" y="545.12">Tool / function&#10;</tspan><tspan x="89.6211" y="561.12">is called</tspan></text>
<rect x="269.977" y="517" width="107" height="63" rx="5.5" fill="#333333"/>
<rect x="269.977" y="517" width="107" height="63" rx="5.5" stroke="#505050"/>
<text fill="#ABABAB" xml:space="preserve" style="white-space: pre" font-family="Ubuntu Mono" font-size="14" letter-spacing="0em"><tspan x="281.477" y="537.12">Return value&#10;</tspan><tspan x="281.477" y="553.12">appended to&#10;</tspan><tspan x="281.477" y="569.12">conversation</tspan></text>
<rect x="422.111" y="525" width="121" height="47" rx="5.5" fill="#333333"/>
<rect x="422.111" y="525" width="121" height="47" rx="5.5" stroke="#505050"/>
<text fill="#ABABAB" xml:space="preserve" style="white-space: pre" font-family="Ubuntu Mono" font-size="14" letter-spacing="0em"><tspan x="433.611" y="545.12">Return value&#10;</tspan><tspan x="433.611" y="561.12">is sent to LLM</tspan></text>
<rect x="588.244" y="525" width="135" height="47" rx="5.5" fill="#333333"/>
<rect x="588.244" y="525" width="135" height="47" rx="5.5" stroke="#505050"/>
<text fill="#ABABAB" xml:space="preserve" style="white-space: pre" font-family="Ubuntu Mono" font-size="14" letter-spacing="0em"><tspan x="599.744" y="545.12">LLM returns&#10;</tspan><tspan x="599.744" y="561.12">response message</tspan></text>
<rect x="768.377" y="517" width="135" height="63" rx="5.5" fill="#333333"/>
<rect x="768.377" y="517" width="135" height="63" rx="5.5" stroke="#505050"/>
<text fill="#ABABAB" xml:space="preserve" style="white-space: pre" font-family="Ubuntu Mono" font-size="14" letter-spacing="0em"><tspan x="779.877" y="537.12">Response message&#10;</tspan><tspan x="779.877" y="553.12">appended to &#10;</tspan><tspan x="779.877" y="569.12">conversation</tspan></text>
<path d="M139.354 98.5928C139.744 98.9834 140.378 98.9834 140.768 98.5928L147.132 92.2289C147.523 91.8384 147.523 91.2052 147.132 90.8147C146.742 90.4241 146.108 90.4241 145.718 90.8147L140.061 96.4715L134.404 90.8147C134.014 90.4241 133.38 90.4241 132.99 90.8147C132.599 91.2052 132.599 91.8384 132.99 92.2289L139.354 98.5928ZM139.061 70.1709L139.061 97.8857L141.061 97.8857L141.061 70.1709L139.061 70.1709Z" fill="#505050"/>
<path d="M139.354 209.222C139.744 209.612 140.378 209.612 140.768 209.222L147.132 202.858C147.523 202.467 147.523 201.834 147.132 201.444C146.742 201.053 146.108 201.053 145.718 201.444L140.061 207.1L134.404 201.444C134.014 201.053 133.38 201.053 132.99 201.444C132.599 201.834 132.599 202.467 132.99 202.858L139.354 209.222ZM139.061 180.8L139.061 208.515L141.061 208.515L141.061 180.8L139.061 180.8Z" fill="#505050"/>
<path d="M817.293 340.19C817.683 340.58 818.317 340.58 818.707 340.19L825.071 333.826C825.462 333.435 825.462 332.802 825.071 332.411C824.681 332.021 824.047 332.021 823.657 332.411L818 338.068L812.343 332.411C811.953 332.021 811.319 332.021 810.929 332.411C810.538 332.802 810.538 333.435 810.929 333.826L817.293 340.19ZM817 311.768L817 339.482L819 339.482L819 311.768L817 311.768Z" fill="#505050"/>
<path d="M139.79 497.94C140.181 498.33 140.814 498.33 141.205 497.94L147.569 491.576C147.959 491.185 147.959 490.552 147.569 490.161C147.178 489.771 146.545 489.771 146.154 490.161L140.498 495.818L134.841 490.161C134.45 489.771 133.817 489.771 133.426 490.161C133.036 490.552 133.036 491.185 133.426 491.576L139.79 497.94ZM139.498 469.518L139.498 497.232L141.498 497.232L141.498 469.518L139.498 469.518Z" fill="#505050"/>
<path d="M141.205 286.674C140.814 286.283 140.181 286.283 139.79 286.674L133.426 293.038C133.036 293.428 133.036 294.061 133.426 294.452C133.817 294.842 134.45 294.842 134.841 294.452L140.498 288.795L146.154 294.452C146.545 294.842 147.178 294.842 147.569 294.452C147.959 294.061 147.959 293.428 147.569 293.038L141.205 286.674ZM141.498 315.096L141.498 287.381L139.498 287.381L139.498 315.096L141.498 315.096Z" fill="#505050"/>
<path d="M251.075 253.207C251.465 252.817 251.465 252.183 251.075 251.793L244.711 245.429C244.32 245.038 243.687 245.038 243.297 245.429C242.906 245.819 242.906 246.453 243.297 246.843L248.953 252.5L243.297 258.157C242.906 258.547 242.906 259.181 243.297 259.571C243.687 259.962 244.32 259.962 244.711 259.571L251.075 253.207ZM222.653 253.5H250.368V251.5H222.653V253.5Z" fill="#505050"/>
<path d="M372.532 390.043C372.142 390.433 372.142 391.067 372.532 391.457L378.896 397.821C379.287 398.212 379.92 398.212 380.31 397.821C380.701 397.431 380.701 396.797 380.31 396.407L374.653 390.75L380.31 385.093C380.701 384.703 380.701 384.069 380.31 383.679C379.92 383.288 379.287 383.288 378.896 383.679L372.532 390.043ZM400.954 389.75L373.239 389.75L373.239 391.75L400.954 391.75L400.954 389.75Z" fill="#505050"/>
<path d="M205.131 390.043C204.74 390.433 204.74 391.067 205.131 391.457L211.495 397.821C211.885 398.212 212.518 398.212 212.909 397.821C213.299 397.431 213.299 396.797 212.909 396.407L207.252 390.75L212.909 385.093C213.299 384.703 213.299 384.069 212.909 383.679C212.518 383.288 211.885 383.288 211.495 383.679L205.131 390.043ZM233.553 389.75L205.838 389.75L205.838 391.75L233.553 391.75L233.553 389.75Z" fill="#505050"/>
<path d="M574.934 390.043C574.543 390.433 574.543 391.067 574.934 391.457L581.297 397.821C581.688 398.212 582.321 398.212 582.712 397.821C583.102 397.431 583.102 396.797 582.712 396.407L577.055 390.75L582.712 385.093C583.102 384.703 583.102 384.069 582.712 383.679C582.321 383.288 581.688 383.288 581.297 383.679L574.934 390.043ZM603.355 389.75L575.641 389.75L575.641 391.75L603.355 391.75L603.355 389.75Z" fill="#505050"/>
<path d="M721.334 390.043C720.943 390.433 720.943 391.067 721.334 391.457L727.698 397.821C728.088 398.212 728.722 398.212 729.112 397.821C729.503 397.431 729.503 396.797 729.112 396.407L723.455 390.75L729.112 385.093C729.503 384.703 729.503 384.069 729.112 383.679C728.722 383.288 728.088 383.288 727.698 383.679L721.334 390.043ZM749.756 389.75L722.041 389.75L722.041 391.75L749.756 391.75L749.756 389.75Z" fill="#505050"/>
<path d="M482.095 253.207C482.486 252.817 482.486 252.183 482.095 251.793L475.731 245.429C475.341 245.038 474.708 245.038 474.317 245.429C473.927 245.819 473.927 246.453 474.317 246.843L479.974 252.5L474.317 258.157C473.927 258.547 473.927 259.181 474.317 259.571C474.708 259.962 475.341 259.962 475.731 259.571L482.095 253.207ZM453.673 253.5H481.388V251.5H453.673V253.5Z" fill="#505050"/>
<path d="M713.115 253.207C713.506 252.817 713.506 252.183 713.115 251.793L706.751 245.429C706.361 245.038 705.728 245.038 705.337 245.429C704.947 245.819 704.947 246.453 705.337 246.843L710.994 252.5L705.337 258.157C704.947 258.547 704.947 259.181 705.337 259.571C705.728 259.962 706.361 259.962 706.751 259.571L713.115 253.207ZM684.693 253.5H712.408V251.5H684.693V253.5Z" fill="#505050"/>
<path d="M760.375 549.207C760.766 548.817 760.766 548.183 760.375 547.793L754.011 541.429C753.621 541.038 752.987 541.038 752.597 541.429C752.206 541.819 752.206 542.453 752.597 542.843L758.254 548.5L752.597 554.157C752.206 554.547 752.206 555.181 752.597 555.571C752.987 555.962 753.621 555.962 754.011 555.571L760.375 549.207ZM731.953 549.5H759.668V547.5H731.953V549.5Z" fill="#505050"/>
<path d="M580.242 549.207C580.633 548.817 580.633 548.183 580.242 547.793L573.878 541.429C573.488 541.038 572.855 541.038 572.464 541.429C572.074 541.819 572.074 542.453 572.464 542.843L578.121 548.5L572.464 554.157C572.074 554.547 572.074 555.181 572.464 555.571C572.855 555.962 573.488 555.962 573.878 555.571L580.242 549.207ZM551.82 549.5H579.535V547.5H551.82V549.5Z" fill="#505050"/>
<path d="M414.108 549.207C414.499 548.817 414.499 548.183 414.108 547.793L407.745 541.429C407.354 541.038 406.721 541.038 406.33 541.429C405.94 541.819 405.94 542.453 406.33 542.843L411.987 548.5L406.33 554.157C405.94 554.547 405.94 555.181 406.33 555.571C406.721 555.962 407.354 555.962 407.745 555.571L414.108 549.207ZM385.687 549.5H413.401V547.5H385.687V549.5Z" fill="#505050"/>
<path d="M261.975 549.207C262.365 548.817 262.365 548.183 261.975 547.793L255.611 541.429C255.22 541.038 254.587 541.038 254.197 541.429C253.806 541.819 253.806 542.453 254.197 542.843L259.853 548.5L254.197 554.157C253.806 554.547 253.806 555.181 254.197 555.571C254.587 555.962 255.22 555.962 255.611 555.571L261.975 549.207ZM233.553 549.5H261.268V547.5H233.553V549.5Z" fill="#505050"/>
<rect x="140.498" y="345.21" width="69" height="69" rx="5.5" transform="rotate(45 140.498 345.21)" fill="#333333"/>
<rect x="140.498" y="345.21" width="69" height="69" rx="5.5" transform="rotate(45 140.498 345.21)" stroke="#505050"/>
<text fill="#ABABAB" xml:space="preserve" style="white-space: pre" font-family="Ubuntu Mono" font-size="14" letter-spacing="0em"><tspan x="112.498" y="390.62">Was tool&#10;</tspan><tspan x="119.498" y="406.62">called</tspan></text>
<text fill="#505050" xml:space="preserve" style="white-space: pre" font-family="Ubuntu Mono" font-size="14" letter-spacing="0em"><tspan x="129.998" y="458.908">yes</tspan></text>
<text fill="#505050" xml:space="preserve" style="white-space: pre" font-family="Ubuntu Mono" font-size="14" letter-spacing="0em"><tspan x="133.498" y="338.333">no</tspan></text>
<path d="M73.2407 253.207C73.6312 252.817 73.6312 252.183 73.2407 251.793L66.8767 245.429C66.4862 245.038 65.853 245.038 65.4625 245.429C65.072 245.819 65.072 246.453 65.4625 246.843L71.1194 252.5L65.4625 258.157C65.072 258.547 65.072 259.181 65.4625 259.571C65.853 259.962 66.4862 259.962 66.8767 259.571L73.2407 253.207ZM821.597 593.235V610.078H823.597V593.235H821.597ZM815.597 616.078H38.1392V618.078H815.597V616.078ZM32.1392 610.078V259.5H30.1392V610.078H32.1392ZM38.1392 253.5H72.5336V251.5H38.1392V253.5ZM32.1392 259.5C32.1392 256.186 34.8255 253.5 38.1392 253.5V251.5C33.7209 251.5 30.1392 255.082 30.1392 259.5H32.1392ZM38.1392 616.078C34.8254 616.078 32.1392 613.392 32.1392 610.078H30.1392C30.1392 614.497 33.7209 618.078 38.1392 618.078V616.078ZM821.597 610.078C821.597 613.392 818.91 616.078 815.597 616.078V618.078C820.015 618.078 823.597 614.497 823.597 610.078H821.597Z" fill="#505050"/>
<text fill="#ABABAB" xml:space="preserve" style="white-space: pre" font-family="Ubuntu Mono" font-size="14" letter-spacing="-0.01em"><tspan x="287.021" y="112.135">When a message is </tspan><tspan x="287.021" y="128.135">flattened any </tspan><tspan x="287.021" y="144.135">dynamic expressions </tspan><tspan x="287.021" y="160.135">in the message are </tspan><tspan x="287.021" y="176.135">evaluated and the </tspan><tspan x="287.021" y="192.135">resulting flatten </tspan><tspan x="287.021" y="208.135">message is a static </tspan><tspan x="287.021" y="224.135">string</tspan></text>
<text fill="#ABABAB" xml:space="preserve" style="white-space: pre" font-family="Ubuntu Mono" font-size="14" letter-spacing="-0.01em"><tspan x="206.897" y="457.908">The actual code that gets ran can either be </tspan><tspan x="206.897" y="473.908">external code such as JavaScript or Python or </tspan><tspan x="206.897" y="489.908">can be Convo-Lang executional statements.</tspan></text>
<rect x="274.131" y="90.7217" width="157.158" height="188.253" rx="9" stroke="#333333" stroke-width="2"/>
<path d="M524.505 495.605L524.505 444.094C524.505 440.228 521.371 437.094 517.505 437.094H197.119C193.253 437.094 190.119 440.228 190.119 444.094L190.118 504.209C190.118 508.075 186.984 511.209 183.118 511.209H69.8343C65.9684 511.209 62.8344 514.343 62.8343 518.209L62.834 579.807C62.834 583.673 65.968 586.807 69.834 586.807H215.382C219.247 586.807 222.381 583.673 222.382 579.807L222.382 509.605C222.382 505.739 225.516 502.605 229.382 502.605H517.505C521.371 502.605 524.505 499.471 524.505 495.605Z" stroke="#333333" stroke-width="2" stroke-linejoin="round"/>
</svg>
