<svg width="940" height="656" viewBox="0 0 940 656" fill="none" xmlns="http://www.w3.org/2000/svg">
<rect width="940" height="656" fill="#1E1E1E"/>
<rect x="51.9551" y="26.5" width="184" height="31" rx="5.5" fill="#333333"/>
<rect x="51.9551" y="26.5" width="184" height="31" rx="5.5" stroke="#505050"/>
<text fill="#ABABAB" xml:space="preserve" style="white-space: pre" font-family="Ubuntu Mono" font-size="14" letter-spacing="0em"><tspan x="63.4551" y="46.62">Parse Convo-Lang script</tspan></text>
<rect x="95.5" y="229" width="93" height="47" rx="5.5" fill="#333333"/>
<rect x="95.5" y="229" width="93" height="47" rx="5.5" stroke="#505050"/>
<text fill="#ABABAB" xml:space="preserve" style="white-space: pre" font-family="Ubuntu Mono" font-size="14" letter-spacing="0em"><tspan x="107" y="249.12">Wait for&#10;</tspan><tspan x="107" y="265.12">user input</tspan></text>
<rect x="284.521" y="237" width="135" height="31" rx="5.5" fill="#333333"/>
<rect x="284.521" y="237" width="135" height="31" rx="5.5" stroke="#505050"/>
<text fill="#ABABAB" xml:space="preserve" style="white-space: pre" font-family="Ubuntu Mono" font-size="14" letter-spacing="0em"><tspan x="296.021" y="257.12">Flatten messages</tspan></text>
<rect x="515.541" y="229" width="135" height="47" rx="5.5" fill="#333333"/>
<rect x="515.541" y="229" width="135" height="47" rx="5.5" stroke="#505050"/>
<text fill="#ABABAB" xml:space="preserve" style="white-space: pre" font-family="Ubuntu Mono" font-size="14" letter-spacing="0em"><tspan x="527.041" y="249.12">Pass messages to&#10;</tspan><tspan x="527.041" y="265.12">LLM adapter</tspan></text>
<rect x="746.561" y="221" width="128" height="63" rx="5.5" fill="#333333"/>
<rect x="746.561" y="221" width="128" height="63" rx="5.5" stroke="#505050"/>
<text fill="#ABABAB" xml:space="preserve" style="white-space: pre" font-family="Ubuntu Mono" font-size="14" letter-spacing="0em"><tspan x="758.061" y="241.12">Convert flatten&#10;</tspan><tspan x="758.061" y="257.12">messages into&#10;</tspan><tspan x="758.061" y="273.12">LLM format</tspan></text>
<rect x="48.4551" y="114.5" width="191" height="47" rx="5.5" fill="#333333"/>
<rect x="48.4551" y="114.5" width="191" height="47" rx="5.5" stroke="#505050"/>
<text fill="#ABABAB" xml:space="preserve" style="white-space: pre" font-family="Ubuntu Mono" font-size="14" letter-spacing="0em"><tspan x="59.9551" y="134.62">Load parsed message into&#10;</tspan><tspan x="59.9551" y="150.62">Conversation context</tspan></text>
<rect x="766.099" y="342.213" width="114" height="47" rx="5.5" fill="#333333"/>
<rect x="766.099" y="342.213" width="114" height="47" rx="5.5" stroke="#505050"/>
<text fill="#ABABAB" xml:space="preserve" style="white-space: pre" font-family="Ubuntu Mono" font-size="14" letter-spacing="0em"><tspan x="777.599" y="362.333">Send messages&#10;</tspan><tspan x="777.599" y="378.333">to LLM</tspan></text>
<rect x="619.698" y="342.213" width="86" height="47" rx="5.5" fill="#333333"/>
<rect x="619.698" y="342.213" width="86" height="47" rx="5.5" stroke="#505050"/>
<text fill="#ABABAB" xml:space="preserve" style="white-space: pre" font-family="Ubuntu Mono" font-size="14" letter-spacing="0em"><tspan x="631.198" y="362.333">LLM sends&#10;</tspan><tspan x="631.198" y="378.333">response</tspan></text>
<rect x="417.297" y="334.213" width="142" height="63" rx="5.5" fill="#333333"/>
<rect x="417.297" y="334.213" width="142" height="63" rx="5.5" stroke="#505050"/>
<text fill="#ABABAB" xml:space="preserve" style="white-space: pre" font-family="Ubuntu Mono" font-size="14" letter-spacing="0em"><tspan x="428.797" y="354.333">LLM adapter&#10;</tspan><tspan x="428.797" y="370.333">converts response&#10;</tspan><tspan x="428.797" y="386.333">to Convo format</tspan></text>
<rect x="249.896" y="334.213" width="107" height="63" rx="5.5" fill="#333333"/>
<rect x="249.896" y="334.213" width="107" height="63" rx="5.5" stroke="#505050"/>
<text fill="#ABABAB" xml:space="preserve" style="white-space: pre" font-family="Ubuntu Mono" font-size="14" letter-spacing="0em"><tspan x="261.396" y="354.333">Messages are&#10;</tspan><tspan x="261.396" y="370.333">appended to&#10;</tspan><tspan x="261.396" y="386.333">conversation</tspan></text>
<rect x="78.1211" y="525" width="128" height="47" rx="5.5" fill="#333333"/>
<rect x="78.1211" y="525" width="128" height="47" rx="5.5" stroke="#505050"/>
<text fill="#ABABAB" xml:space="preserve" style="white-space: pre" font-family="Ubuntu Mono" font-size="14" letter-spacing="0em"><tspan x="89.6211" y="545.12">Tool / function&#10;</tspan><tspan x="89.6211" y="561.12">is called</tspan></text>
<rect x="269.977" y="517" width="107" height="63" rx="5.5" fill="#333333"/>
<rect x="269.977" y="517" width="107" height="63" rx="5.5" stroke="#505050"/>
<text fill="#ABABAB" xml:space="preserve" style="white-space: pre" font-family="Ubuntu Mono" font-size="14" letter-spacing="0em"><tspan x="281.477" y="537.12">Return value&#10;</tspan><tspan x="281.477" y="553.12">appended to&#10;</tspan><tspan x="281.477" y="569.12">conversation</tspan></text>
<rect x="422.111" y="525" width="121" height="47" rx="5.5" fill="#333333"/>
<rect x="422.111" y="525" width="121" height="47" rx="5.5" stroke="#505050"/>
<text fill="#ABABAB" xml:space="preserve" style="white-space: pre" font-family="Ubuntu Mono" font-size="14" letter-spacing="0em"><tspan x="433.611" y="545.12">Return value&#10;</tspan><tspan x="433.611" y="561.12">is sent to LLM</tspan></text>
<rect x="588.244" y="525" width="135" height="47" rx="5.5" fill="#333333"/>
<rect x="588.244" y="525" width="135" height="47" rx="5.5" stroke="#505050"/>
<text fill="#ABABAB" xml:space="preserve" style="white-space: pre" font-family="Ubuntu Mono" font-size="14" letter-spacing="0em"><tspan x="599.744" y="545.12">LLM returns&#10;</tspan><tspan x="599.744" y="561.12">response message</tspan></text>
<rect x="768.377" y="517" width="135" height="63" rx="5.5" fill="#333333"/>
<rect x="768.377" y="517" width="135" height="63" rx="5.5" stroke="#505050"/>
<text fill="#ABABAB" xml:space="preserve" style="white-space: pre" font-family="Ubuntu Mono" font-size="14" letter-spacing="0em"><tspan x="779.877" y="537.12">Response message&#10;</tspan><tspan x="779.877" y="553.12">appended to &#10;</tspan><tspan x="779.877" y="569.12">conversation</tspan></text>
<path d="M139.354 98.5928C139.744 98.9834 140.378 98.9834 140.768 98.5928L147.132 92.2289C147.523 91.8384 147.523 91.2052 147.132 90.8147C146.742 90.4241 146.108 90.4241 145.718 90.8147L140.061 96.4715L134.404 90.8147C134.014 90.4241 133.38 90.4241 132.99 90.8147C132.599 91.2052 132.599 91.8384 132.99 92.2289L139.354 98.5928ZM139.061 70.1709L139.061 97.8857L141.061 97.8857L141.061 70.1709L139.061 70.1709Z" fill="#505050"/>
<path d="M139.354 209.222C139.744 209.612 140.378 209.612 140.768 209.222L147.132 202.858C147.523 202.467 147.523 201.834 147.132 201.444C146.742 201.053 146.108 201.053 145.718 201.444L140.061 207.1L134.404 201.444C134.014 201.053 133.38 201.053 132.99 201.444C132.599 201.834 132.599 202.467 132.99 202.858L139.354 209.222ZM139.061 180.8L139.061 208.515L141.061 208.515L141.061 180.8L139.061 180.8Z" fill="#505050"/>
<path d="M817.293 326.42C817.683 326.811 818.317 326.811 818.707 326.42L825.071 320.056C825.462 319.666 825.462 319.032 825.071 318.642C824.681 318.251 824.047 318.251 823.657 318.642L818 324.299L812.343 318.642C811.953 318.251 811.319 318.251 810.929 318.642C810.538 319.032 810.538 319.666 810.929 320.056L817.293 326.42ZM817 297.998L817 325.713L819 325.713L819 297.998L817 297.998Z" fill="#505050"/>
<path d="M139.79 497.94C140.181 498.33 140.814 498.33 141.205 497.94L147.569 491.576C147.959 491.185 147.959 490.552 147.569 490.161C147.178 489.771 146.545 489.771 146.154 490.161L140.498 495.818L134.841 490.161C134.45 489.771 133.817 489.771 133.426 490.161C133.036 490.552 133.036 491.185 133.426 491.576L139.79 497.94ZM139.498 469.518L139.498 497.232L141.498 497.232L141.498 469.518L139.498 469.518Z" fill="#505050"/>
<path d="M141.205 286.674C140.814 286.283 140.181 286.283 139.79 286.674L133.426 293.038C133.036 293.428 133.036 294.061 133.426 294.452C133.817 294.842 134.45 294.842 134.841 294.452L140.498 288.795L146.154 294.452C146.545 294.842 147.178 294.842 147.569 294.452C147.959 294.061 147.959 293.428 147.569 293.038L141.205 286.674ZM141.498 315.096L141.498 287.381L139.498 287.381L139.498 315.096L141.498 315.096Z" fill="#505050"/>
<path d="M251.075 253.207C251.465 252.817 251.465 252.183 251.075 251.793L244.711 245.429C244.32 245.038 243.687 245.038 243.297 245.429C242.906 245.819 242.906 246.453 243.297 246.843L248.953 252.5L243.297 258.157C242.906 258.547 242.906 259.181 243.297 259.571C243.687 259.962 244.32 259.962 244.711 259.571L251.075 253.207ZM222.653 253.5H250.368V251.5H222.653V253.5Z" fill="#505050"/>
<path d="M372.532 365.006C372.142 365.396 372.142 366.029 372.532 366.42L378.896 372.784C379.287 373.174 379.92 373.174 380.31 372.784C380.701 372.393 380.701 371.76 380.31 371.37L374.653 365.713L380.31 360.056C380.701 359.666 380.701 359.032 380.31 358.642C379.92 358.251 379.287 358.251 378.896 358.642L372.532 365.006ZM400.954 364.713L373.239 364.713L373.239 366.713L400.954 366.713L400.954 364.713Z" fill="#505050"/>
<path d="M209.827 384.827C209.695 385.363 210.023 385.905 210.56 386.036L219.299 388.185C219.836 388.317 220.377 387.989 220.509 387.453C220.641 386.916 220.313 386.375 219.777 386.243L212.008 384.333L213.918 376.564C214.05 376.028 213.722 375.486 213.185 375.354C212.649 375.223 212.107 375.55 211.976 376.087L209.827 384.827ZM233.989 369.857L210.28 384.21L211.316 385.921L235.025 371.568L233.989 369.857Z" fill="#505050"/>
<path d="M574.934 365.006C574.543 365.396 574.543 366.029 574.934 366.42L581.297 372.784C581.688 373.174 582.321 373.174 582.712 372.784C583.102 372.393 583.102 371.76 582.712 371.37L577.055 365.713L582.712 360.056C583.102 359.666 583.102 359.032 582.712 358.642C582.321 358.251 581.688 358.251 581.297 358.642L574.934 365.006ZM603.355 364.713L575.641 364.713L575.641 366.713L603.355 366.713L603.355 364.713Z" fill="#505050"/>
<path d="M721.334 365.006C720.943 365.396 720.943 366.029 721.334 366.42L727.698 372.784C728.088 373.174 728.722 373.174 729.112 372.784C729.503 372.393 729.503 371.76 729.112 371.37L723.455 365.713L729.112 360.056C729.503 359.666 729.503 359.032 729.112 358.642C728.722 358.251 728.088 358.251 727.698 358.642L721.334 365.006ZM749.756 364.713L722.041 364.713L722.041 366.713L749.756 366.713L749.756 364.713Z" fill="#505050"/>
<path d="M482.095 253.207C482.486 252.817 482.486 252.183 482.095 251.793L475.731 245.429C475.341 245.038 474.708 245.038 474.317 245.429C473.927 245.819 473.927 246.453 474.317 246.843L479.974 252.5L474.317 258.157C473.927 258.547 473.927 259.181 474.317 259.571C474.708 259.962 475.341 259.962 475.731 259.571L482.095 253.207ZM453.673 253.5H481.388V251.5H453.673V253.5Z" fill="#505050"/>
<path d="M713.115 253.207C713.506 252.817 713.506 252.183 713.115 251.793L706.751 245.429C706.361 245.038 705.728 245.038 705.337 245.429C704.947 245.819 704.947 246.453 705.337 246.843L710.994 252.5L705.337 258.157C704.947 258.547 704.947 259.181 705.337 259.571C705.728 259.962 706.361 259.962 706.751 259.571L713.115 253.207ZM684.693 253.5H712.408V251.5H684.693V253.5Z" fill="#505050"/>
<path d="M760.375 549.207C760.766 548.817 760.766 548.183 760.375 547.793L754.011 541.429C753.621 541.038 752.987 541.038 752.597 541.429C752.206 541.819 752.206 542.453 752.597 542.843L758.254 548.5L752.597 554.157C752.206 554.547 752.206 555.181 752.597 555.571C752.987 555.962 753.621 555.962 754.011 555.571L760.375 549.207ZM731.953 549.5H759.668V547.5H731.953V549.5Z" fill="#505050"/>
<path d="M580.242 549.207C580.633 548.817 580.633 548.183 580.242 547.793L573.878 541.429C573.488 541.038 572.855 541.038 572.464 541.429C572.074 541.819 572.074 542.453 572.464 542.843L578.121 548.5L572.464 554.157C572.074 554.547 572.074 555.181 572.464 555.571C572.855 555.962 573.488 555.962 573.878 555.571L580.242 549.207ZM551.82 549.5H579.535V547.5H551.82V549.5Z" fill="#505050"/>
<path d="M414.108 549.207C414.499 548.817 414.499 548.183 414.108 547.793L407.745 541.429C407.354 541.038 406.721 541.038 406.33 541.429C405.94 541.819 405.94 542.453 406.33 542.843L411.987 548.5L406.33 554.157C405.94 554.547 405.94 555.181 406.33 555.571C406.721 555.962 407.354 555.962 407.745 555.571L414.108 549.207ZM385.687 549.5H413.401V547.5H385.687V549.5Z" fill="#505050"/>
<path d="M261.975 549.207C262.365 548.817 262.365 548.183 261.975 547.793L255.611 541.429C255.22 541.038 254.587 541.038 254.197 541.429C253.806 541.819 253.806 542.453 254.197 542.843L259.853 548.5L254.197 554.157C253.806 554.547 253.806 555.181 254.197 555.571C254.587 555.962 255.22 555.962 255.611 555.571L261.975 549.207ZM233.553 549.5H261.268V547.5H233.553V549.5Z" fill="#505050"/>
<rect x="140.498" y="345.21" width="69" height="69" rx="5.5" transform="rotate(45 140.498 345.21)" fill="#333333"/>
<rect x="140.498" y="345.21" width="69" height="69" rx="5.5" transform="rotate(45 140.498 345.21)" stroke="#505050"/>
<text fill="#ABABAB" xml:space="preserve" style="white-space: pre" font-family="Ubuntu Mono" font-size="14" letter-spacing="0em"><tspan x="112.498" y="390.62">Was tool&#10;</tspan><tspan x="119.498" y="406.62">called</tspan></text>
<text fill="#505050" xml:space="preserve" style="white-space: pre" font-family="Ubuntu Mono" font-size="14" letter-spacing="0em"><tspan x="129.998" y="458.908">yes</tspan></text>
<text fill="#505050" xml:space="preserve" style="white-space: pre" font-family="Ubuntu Mono" font-size="14" letter-spacing="0em"><tspan x="133.498" y="338.333">no</tspan></text>
<path d="M73.2407 253.207C73.6312 252.817 73.6312 252.183 73.2407 251.793L66.8767 245.429C66.4862 245.038 65.853 245.038 65.4625 245.429C65.072 245.819 65.072 246.453 65.4625 246.843L71.1194 252.5L65.4625 258.157C65.072 258.547 65.072 259.181 65.4625 259.571C65.853 259.962 66.4862 259.962 66.8767 259.571L73.2407 253.207ZM821.597 593.235V610.078H823.597V593.235H821.597ZM815.597 616.078H38.1392V618.078H815.597V616.078ZM32.1392 610.078V259.5H30.1392V610.078H32.1392ZM38.1392 253.5H72.5336V251.5H38.1392V253.5ZM32.1392 259.5C32.1392 256.186 34.8255 253.5 38.1392 253.5V251.5C33.7209 251.5 30.1392 255.082 30.1392 259.5H32.1392ZM38.1392 616.078C34.8254 616.078 32.1392 613.392 32.1392 610.078H30.1392C30.1392 614.497 33.7209 618.078 38.1392 618.078V616.078ZM821.597 610.078C821.597 613.392 818.91 616.078 815.597 616.078V618.078C820.015 618.078 823.597 614.497 823.597 610.078H821.597Z" fill="#505050"/>
<text fill="#ABABAB" xml:space="preserve" style="white-space: pre" font-family="Ubuntu Mono" font-size="14" letter-spacing="-0.01em"><tspan x="287.021" y="112.135">When a message is </tspan><tspan x="287.021" y="128.135">flattened any </tspan><tspan x="287.021" y="144.135">dynamic expressions </tspan><tspan x="287.021" y="160.135">in the message are </tspan><tspan x="287.021" y="176.135">evaluated and the </tspan><tspan x="287.021" y="192.135">resulting flatten </tspan><tspan x="287.021" y="208.135">message is a static </tspan><tspan x="287.021" y="224.135">string</tspan></text>
<text fill="#ABABAB" xml:space="preserve" style="white-space: pre" font-family="Ubuntu Mono" font-size="14" letter-spacing="-0.01em"><tspan x="206.897" y="449.726">The actual code that gets ran can either be </tspan><tspan x="206.897" y="465.726">external code such as JavaScript or Python or </tspan><tspan x="206.897" y="481.726">can be Convo-Lang executional statements.</tspan></text>
<rect x="274.131" y="90.7217" width="157.158" height="188.253" rx="9" stroke="#333333" stroke-width="2"/>
<path d="M524.505 491.45L524.505 432.815C524.505 428.949 521.371 425.815 517.505 425.815H197.119C193.253 425.815 190.119 428.949 190.119 432.815L190.118 504.209C190.118 508.075 186.984 511.209 183.118 511.209H69.8343C65.9684 511.209 62.8344 514.343 62.8343 518.209L62.834 579.807C62.834 583.673 65.968 586.807 69.834 586.807H215.382C219.247 586.807 222.381 583.673 222.382 579.807L222.382 505.45C222.382 501.584 225.516 498.45 229.382 498.45H517.505C521.371 498.45 524.505 495.316 524.505 491.45Z" stroke="#333333" stroke-width="2" stroke-linejoin="round"/>
</svg>
